<svg width="620" height="260" viewBox="0 0 620 260" fill="none" xmlns="http://www.w3.org/2000/svg">
  <rect x="30" y="0" width="560" height="226" rx="0" fill="url(#sheet)"/>
  <path d="M30 0H590V192C590 209.673 575.673 224 558 224H62C44.3269 224 30 209.673 30 192V0Z" fill="url(#sheet)" stroke="#7F95AA" stroke-opacity="0.4"/>
  <path d="M30 0H590V42H30V0Z" fill="url(#gloss)"/>
  <text x="310" y="54" text-anchor="middle" font-family="Lucida Grande, Trebuchet MS, sans-serif" font-size="22" font-weight="700" fill="#26425D">Save Changes to Aqua Library?</text>
  <text x="310" y="95" text-anchor="middle" font-family="Lucida Grande, Trebuchet MS, sans-serif" font-size="15" fill="#53708D">Attached sheets descend from the titlebar and share the same silver pinstripe chrome.</text>
  <rect x="344" y="148" width="96" height="42" rx="21" fill="url(#buttonGray)" stroke="#7C90A4" stroke-opacity="0.55"/>
  <rect x="454" y="148" width="96" height="42" rx="21" fill="url(#buttonBlue)" stroke="#124B95" stroke-opacity="0.62"/>
  <text x="392" y="174" text-anchor="middle" font-family="Lucida Grande, Trebuchet MS, sans-serif" font-size="18" font-weight="700" fill="#264460">Cancel</text>
  <text x="502" y="174" text-anchor="middle" font-family="Lucida Grande, Trebuchet MS, sans-serif" font-size="18" font-weight="700" fill="white">Save</text>
  <defs>
    <linearGradient id="sheet" x1="310" y1="0" x2="310" y2="224" gradientUnits="userSpaceOnUse">
      <stop offset="0" stop-color="#FCFEFF"/>
      <stop offset="0.58" stop-color="#DEE9F4"/>
      <stop offset="1" stop-color="#CDDCEA"/>
    </linearGradient>
    <linearGradient id="gloss" x1="310" y1="0" x2="310" y2="42" gradientUnits="userSpaceOnUse">
      <stop offset="0" stop-color="white" stop-opacity="0.88"/>
      <stop offset="1" stop-color="white" stop-opacity="0"/>
    </linearGradient>
    <linearGradient id="buttonGray" x1="392" y1="148" x2="392" y2="190" gradientUnits="userSpaceOnUse">
      <stop offset="0" stop-color="#FFFFFF"/>
      <stop offset="1" stop-color="#B6C6D6"/>
    </linearGradient>
    <linearGradient id="buttonBlue" x1="502" y1="148" x2="502" y2="190" gradientUnits="userSpaceOnUse">
      <stop offset="0" stop-color="#B3EAFF"/>
      <stop offset="1" stop-color="#0E5FBE"/>
    </linearGradient>
  </defs>
</svg>